<?xml version="1.0" encoding="utf-8"?>
<!-- Generator: Adobe Illustrator 26.0.1, SVG Export Plug-In . SVG Version: 6.00 Build 0)  -->
<svg version="1.1" id="Layer_1" xmlns="http://www.w3.org/2000/svg" xmlns:xlink="http://www.w3.org/1999/xlink" x="0px" y="0px"
	 viewBox="0 0 230 84" style="enable-background:new 0 0 230 84;" xml:space="preserve">
<style type="text/css">
	.st0{display:none;}
	.st1{display:inline;}
	.st2{fill:#282828;}
</style>
<g id="Layer_1_00000044165102463332966730000001921733404840893318_" class="st0">
	<g id="ak8rBS_00000080202244997369360660000003123281910643906224_" class="st1">
		
			<image style="overflow:visible;enable-background:new    ;" width="1001" height="705" id="ak8rBS" xlink:href="2DD01E197A9B5F46.jpeg"  transform="matrix(0.9986 0 0 0.9986 -8.0882 -55.0061)">
		</image>
	</g>
</g>
<g id="Layer_2_00000099650945317598545690000007272392979388167350_">
	<polygon class="st2" points="135,70.1 142.3,77 168.3,84 172.6,73.7 163.4,66.2 	"/>
	<path class="st2" d="M145.9,60l33.6-18.8L145.9,60z"/>
	<path class="st2" d="M145.9,60L74.4,48.3c0,0,33.8-29.9,105.1-7"/>
	<path class="st2" d="M122.2,75.1c1.2-3,2.3-5.9,3.5-8.9C83.8,57.6,41.9,49,0,40.5C11.6,44.3,45.2,55.9,122.2,75.1z"/>
	<path class="st2" d="M48.3,64.4"/>
	<path class="st2" d="M230,0c0,0-11.1,20.6-18.9,31c-8.6,11.3-14.5,19.7-27.3,33.6c-5.5-2.3-11-4.7-16.5-7
		c16.2-11.2,27.7-20.8,38-30.6C216.9,15.9,230,0,230,0z"/>
	<path class="st2" d="M195.3,73.5"/>
</g>
</svg>
